<svg width="20" height="20" viewBox="0 0 20 20" fill="none" xmlns="http://www.w3.org/2000/svg">
<path d="M9.99935 18.3333C14.6017 18.3333 18.3327 14.6023 18.3327 9.99996C18.3327 5.39759 14.6017 1.66663 9.99935 1.66663C5.39698 1.66663 1.66602 5.39759 1.66602 9.99996C1.66602 14.6023 5.39698 18.3333 9.99935 18.3333Z" fill="#459C00"/>
<path d="M8.81719 12.9833C8.65052 12.9833 8.49219 12.9166 8.37552 12.8L6.01719 10.4416C5.77552 10.2 5.77552 9.79996 6.01719 9.55829C6.25885 9.31663 6.65885 9.31663 6.90052 9.55829L8.81719 11.475L13.1005 7.19163C13.3422 6.94996 13.7422 6.94996 13.9839 7.19163C14.2255 7.43329 14.2255 7.83329 13.9839 8.07496L9.25885 12.8C9.14219 12.9166 8.98385 12.9833 8.81719 12.9833Z" fill="white"/>
</svg>
