<svg width="81" height="80" viewBox="0 0 81 80" fill="none" xmlns="http://www.w3.org/2000/svg">
<circle cx="40.5" cy="40" r="40" fill="#141414"/>
<path d="M27.666 55L54.3327 48.3334" stroke="white" stroke-width="2.6" stroke-linecap="round" stroke-linejoin="round"/>
<path d="M54.3327 55L27.666 48.3333M34.3327 38.3333C34.2653 39.226 34.3916 40.1227 34.7028 40.9621C35.014 41.8015 35.5029 42.5638 36.1359 43.1968C36.7689 43.8298 37.5312 44.3186 38.3706 44.6299C39.21 44.9411 40.1067 45.0673 40.9993 45C41.8875 45.0481 42.7758 44.9086 43.6064 44.5906C44.437 44.2726 45.1914 43.7832 45.8203 43.1543C46.4492 42.5254 46.9386 41.771 47.2566 40.9404C47.5746 40.1098 47.7141 39.2215 47.666 38.3333C47.666 33.85 44.3327 33.3333 44.3327 25C37.666 28.3333 34.3327 33.6167 34.3327 38.3333Z" stroke="white" stroke-width="2.6" stroke-linecap="round" stroke-linejoin="round"/>
</svg>
