<svg width="80" height="80" viewBox="0 0 80 80" fill="none" xmlns="http://www.w3.org/2000/svg">
<circle cx="40" cy="40" r="40" fill="#141414"/>
<path d="M39.554 35.7093L25.9303 32.6695C25.3812 32.5469 24.8153 32.7833 24.516 33.2592C23.1296 35.4658 22.1082 37.7466 21.714 39.5167C20.6588 44.2471 23.3048 48.9536 27.721 50.6044L26.4772 56.1839L23.7351 55.5721C23.0194 55.4118 22.309 55.8633 22.1493 56.5794C21.9894 57.2953 22.4404 58.0055 23.1565 58.1652L31.2344 59.9678C31.3319 59.9896 31.4291 60 31.525 60C32.1335 60 32.6823 59.5792 32.8202 58.9605C32.9802 58.2445 32.5292 57.5344 31.813 57.3746L29.0706 56.7627L30.3147 51.1821C30.575 51.2033 30.8355 51.2177 31.0958 51.2177C33.245 51.2177 35.3617 50.4788 37.055 49.1372C38.7741 47.7755 39.9842 45.8443 40.4627 43.6998C40.8569 41.9311 40.9009 39.4322 40.5832 36.8441C40.5147 36.2862 40.1025 35.8316 39.554 35.7093ZM26.2842 35.4708L38.043 38.0944C38.1029 38.7857 38.1332 39.4631 38.1351 40.1068L25.346 37.2532C25.6213 36.6713 25.9365 36.0709 26.2842 35.4708ZM37.8693 43.1213C37.1661 46.2731 34.3175 48.5608 31.0958 48.5608C30.5882 48.5608 30.0771 48.5041 29.5763 48.3926C29.5761 48.3926 29.5758 48.3923 29.5754 48.3923C29.5751 48.3923 29.5749 48.3922 29.5746 48.3922C25.8359 47.5571 23.4729 43.8355 24.3074 40.0949C24.3827 39.7569 24.4905 39.3882 24.6254 38.9982L38.047 41.9928C38.0035 42.4035 37.9446 42.7834 37.8693 43.1213Z" fill="white"/>
<path d="M58.4641 43.6155C58.2565 42.9118 57.5181 42.509 56.8141 42.717L54.1267 43.5094L52.5152 38.0405C56.8028 36.0994 59.1225 31.2339 57.755 26.5926C57.2428 24.855 56.0725 22.6516 54.5439 20.5479C54.2137 20.0931 53.6327 19.8954 53.0934 20.0545L39.729 23.9953C39.19 24.1543 38.8092 24.6352 38.7783 25.1964C38.635 27.7933 38.8463 30.2794 39.3581 32.0172C40.552 36.0695 44.333 38.8999 48.5527 38.9001C48.5529 38.9001 48.5529 38.9001 48.5532 38.9001C49.0263 38.9001 49.4988 38.864 49.9672 38.7939L51.5779 44.2611L48.8896 45.0539C48.1857 45.2615 47.7836 46.0002 47.9911 46.7039C48.1617 47.2823 48.6909 47.6572 49.2649 47.6572C49.389 47.6572 49.5156 47.6395 49.641 47.6025L57.5655 45.2656C58.2692 45.058 58.6715 44.3191 58.4641 43.6155ZM41.3966 26.2736L52.9286 22.8732C53.3143 23.4464 53.6677 24.022 53.9803 24.5819L41.4395 28.2799C41.3986 27.6399 41.3832 26.9645 41.3966 26.2736ZM48.5528 36.243C45.503 36.2429 42.77 34.1963 41.9069 31.2663C41.8092 30.935 41.7251 30.5611 41.6544 30.1557L54.8166 26.2745C54.9768 26.6533 55.1088 27.0124 55.2063 27.3436C56.2871 31.0122 54.1832 34.8764 50.5166 35.9578H50.5163L50.516 35.9579C49.8746 36.1471 49.2141 36.243 48.5531 36.243H48.5528Z" fill="white"/>
</svg>
