<svg width="80" height="80" viewBox="0 0 80 80" fill="none" xmlns="http://www.w3.org/2000/svg">
<circle cx="40" cy="40" r="40" fill="#141414"/>
<g clip-path="url(#clip0_358_3450)">
<path d="M52.5387 36.7739V21.875C52.5387 21.0725 51.8856 20.4198 51.0831 20.4198C50.2814 20.4198 49.6284 21.0725 49.6284 21.875V25.2942H32.3467V21.875C32.3467 21.0725 31.694 20.4198 30.8914 20.4198C30.0894 20.4198 29.4375 21.0725 29.4375 21.875V39.3585L32.296 37.703C32.3129 37.693 32.3298 37.6844 32.3467 37.6745V35.862H49.6284V36.8157C50.5918 36.6344 51.5685 36.6186 52.5387 36.7739ZM32.3467 32.9527V28.2025H49.6284V32.9527H32.3467Z" fill="white"/>
<path d="M21.25 48.3918L26.6177 51.3658C28.0994 52.1874 30.4512 52.1642 31.9122 51.3154L35.0633 49.4898C35.5336 49.2173 36.1825 49.1891 36.4405 49.1891C36.7044 49.1891 37.2068 49.2173 37.5998 49.4129L41.7658 51.4813C43.289 52.2383 45.6159 52.1328 47.0549 51.2468L49.8605 49.5195C50.3213 49.2338 50.9652 49.2025 51.2203 49.2025C51.5233 49.2025 51.9602 49.2397 52.3169 49.4189L58.3928 52.4689C59.1037 52.8247 59.9962 52.5177 60.3456 51.8216C60.7048 51.104 60.4151 50.2281 59.6983 49.868L53.624 46.8196C52.1006 46.0534 49.7747 46.1541 48.3331 47.0425L45.5293 48.7698C45.0636 49.0579 44.4129 49.0895 44.1553 49.0895C43.8532 49.0895 43.4189 49.053 43.062 48.8771L38.8933 46.8081C37.3935 46.0632 35.0441 46.1375 33.604 46.9741L30.4529 48.7997C30.0379 49.0392 29.4968 49.0753 29.2111 49.0753C28.9402 49.0753 28.4254 49.0423 28.0271 48.8212L22.6594 45.8479C21.9762 45.4673 21.058 45.7382 20.6816 46.4151C20.2934 47.1168 20.5481 48.0038 21.25 48.3918Z" fill="white"/>
<path d="M21.2496 55.3538L26.6173 58.3279C28.0978 59.1487 30.4509 59.1263 31.9128 58.2783L35.0631 56.452C35.5342 56.1803 36.1836 56.1506 36.4403 56.1506C36.7042 56.1506 37.2058 56.1795 37.5988 56.3743L41.7656 58.4435C43.288 59.2014 45.6157 59.0959 47.0547 58.2091L49.8603 56.4818C50.3211 56.1961 50.965 56.1647 51.2193 56.1647C51.5231 56.1647 51.9591 56.2011 52.3157 56.3803L58.3926 59.4311C59.1019 59.7863 59.996 59.4816 60.3454 58.783C60.7046 58.0655 60.4149 57.1902 59.6981 56.8302L53.6238 53.781C52.1022 53.0173 49.7745 53.1155 48.3329 54.0049L45.5291 55.7322C45.0616 56.0195 44.4118 56.0509 44.1535 56.0509C43.852 56.0509 43.4169 56.0145 43.0618 55.8377L38.8939 53.7685C37.3941 53.0238 35.0456 53.0981 33.6048 53.9353L30.4536 55.76C30.0397 56.0005 29.4976 56.0366 29.2119 56.0366C28.941 56.0366 28.4262 56.0036 28.0283 55.7831L22.6603 52.809C21.9755 52.4292 21.0573 52.7001 20.6823 53.3771C20.2931 54.0791 20.5477 54.9657 21.2496 55.3538Z" fill="white"/>
<path d="M21.275 41.4365L26.643 44.4088C28.1098 45.2221 30.4382 45.1997 31.8884 44.3592L35.0376 42.5335C35.5182 42.2562 36.1808 42.2264 36.4429 42.2264C36.7117 42.2264 37.2235 42.2562 37.624 42.455L41.7894 44.5234C43.2979 45.2722 45.6024 45.1683 47.0292 44.2912L49.8331 42.5623C50.3063 42.2718 50.9627 42.2404 51.2227 42.2404C51.5333 42.2404 51.9781 42.2783 52.3415 42.4617L58.4168 45.5101C59.1119 45.8592 59.9823 45.5496 60.3225 44.8527C60.6742 44.1319 60.3844 43.2552 59.676 42.9L53.5999 39.8504C53.4231 39.7616 53.2183 39.6795 52.9757 39.6001C51.8139 39.2211 50.4178 39.2426 49.2106 39.6785C48.8564 39.8073 48.5863 39.9315 48.361 40.0712L45.5562 41.8002C45.0798 42.0924 44.4159 42.1238 44.1525 42.1238C43.8421 42.1238 43.3987 42.0866 43.0371 41.9066L38.8711 39.8383C37.3858 39.1001 35.059 39.1741 33.6303 40.0035L30.3268 41.9017C30.0089 42.0388 29.6184 42.1097 29.2101 42.1097C28.9327 42.1097 28.4075 42.0766 28.0017 41.8505L22.6345 38.8788C21.9624 38.5052 21.0686 38.7806 20.7052 39.4572C20.3254 40.165 20.581 41.0516 21.275 41.4365Z" fill="white"/>
</g>
<defs>
<clipPath id="clip0_358_3450">
<rect width="40" height="40" fill="white" transform="translate(20.5 20)"/>
</clipPath>
</defs>
</svg>
