<svg width="80" height="80" viewBox="0 0 80 80" fill="none" xmlns="http://www.w3.org/2000/svg">
<circle cx="40" cy="40" r="40" fill="#141414"/>
<g clip-path="url(#clip0_358_3411)">
<path d="M58.6956 41.7391H53.913V37.8261C53.913 35.6684 52.1577 33.913 50 33.913C47.8423 33.913 46.087 35.6684 46.087 37.8261V41.7391H43.4783V28.1709C45.3481 29.1295 47.6508 28.7599 49.1305 27.1905C52.0992 30.3395 57.3913 28.2172 57.3913 23.9131V21.3044C57.3913 20.5841 56.8073 20 56.087 20C54.5825 20 22.7064 20 21.3044 20C20.584 20 20 20.584 20 21.3044V23.913C20 25.7676 21.0617 27.3778 22.6087 28.1709V41.7391H21.3044C20.584 41.7391 20 42.3231 20 43.0435V53.4783C20 54.1986 20.584 54.7827 21.3044 54.7827H25.3487C25.9545 57.7559 28.5897 60 31.7391 60C34.8886 60 37.5237 57.7559 38.1297 54.7826H46.087V58.6956C46.087 59.4159 46.6709 60 47.3913 60C48.1117 60 48.6957 59.416 48.6957 58.6956V54.7826H52.6087C53.3291 54.7826 53.9131 54.1986 53.9131 53.4782V44.3477H58.6957C59.416 44.3477 60.0001 43.7637 60.0001 43.0434C60.0001 42.323 59.416 41.7391 58.6956 41.7391ZM50.4348 22.6087H54.7826V23.913C54.7826 25.1117 53.8073 26.087 52.6087 26.087C51.41 26.087 50.4348 25.1117 50.4348 23.913V22.6087ZM43.4783 22.6087H47.8261V23.913C47.8261 25.1117 46.8509 26.087 45.6522 26.087C44.4535 26.087 43.4783 25.1117 43.4783 23.913V22.6087ZM36.5217 22.6087H40.8695V23.913C40.8695 25.1117 39.8943 26.087 38.6956 26.087C37.497 26.087 36.5217 25.1117 36.5217 23.913V22.6087ZM29.5652 22.6087H33.913V23.913C33.913 25.1117 32.9378 26.087 31.7391 26.087C30.5405 26.087 29.5652 25.1117 29.5652 23.913V22.6087ZM28.2609 27.1905C30.1529 29.1973 33.325 29.1976 35.2173 27.1905C36.6959 28.7588 38.9984 29.1302 40.8695 28.1708V41.7391H38.2609C38.2609 41.1398 38.2609 37.0841 38.2609 36.5217C38.2609 33.6448 35.9203 31.3043 33.0434 31.3043C30.1666 31.3043 27.826 33.6448 27.826 36.5217C27.826 37.093 27.826 41.0753 27.826 41.7391H25.2174V28.6749C26.4126 28.5667 27.4816 28.017 28.2609 27.1905ZM30.4348 36.5217C30.4348 35.0833 31.605 33.913 33.0434 33.913C34.4819 33.913 35.6521 35.0833 35.6521 36.5217H30.4348ZM35.6522 39.1305V41.7391H30.4348V39.1305H35.6522ZM22.6087 22.6087H26.9565V23.913C26.9565 25.1117 25.9812 26.087 24.7826 26.087C23.5839 26.087 22.6087 25.1117 22.6087 23.913V22.6087ZM31.7391 57.3913C29.5815 57.3913 27.8261 55.6359 27.8261 53.4783C27.8261 51.3206 29.5815 49.5652 31.7391 49.5652C33.8968 49.5652 35.6522 51.3206 35.6522 53.4783C35.6522 55.6359 33.8968 57.3913 31.7391 57.3913ZM51.3044 52.1739H38.1297C37.5237 49.2007 34.8887 46.9565 31.7391 46.9565C28.5897 46.9565 25.9546 49.2006 25.3486 52.1739H22.6087V44.3478C23.6274 44.3478 50.2716 44.3478 51.3043 44.3478V52.1739H51.3044ZM51.3044 41.7391H48.6957V37.8261C48.6957 37.1069 49.2809 36.5217 50.0001 36.5217C50.7193 36.5217 51.3045 37.1069 51.3045 37.8261L51.3044 41.7391Z" fill="white"/>
<path d="M31.7399 54.7827C32.4603 54.7827 33.0443 54.1987 33.0443 53.4783C33.0443 52.7579 32.4603 52.174 31.7399 52.174C31.0195 52.174 30.4355 52.7579 30.4355 53.4783C30.4355 54.1987 31.0195 54.7827 31.7399 54.7827Z" fill="white"/>
</g>
<defs>
<clipPath id="clip0_358_3411">
<rect width="40" height="40" fill="white" transform="translate(20 20)"/>
</clipPath>
</defs>
</svg>
