<svg width="80" height="80" viewBox="0 0 80 80" fill="none" xmlns="http://www.w3.org/2000/svg">
<circle cx="40" cy="40" r="40" fill="#F6F6F6"/>
<path d="M24.9994 33.7725V33.75C24.9994 31.5277 25.6576 29.3551 26.8909 27.5064C28.1243 25.6577 29.8775 24.2157 31.9295 23.3623C33.9815 22.509 36.2402 22.2825 38.4208 22.7114C40.6014 23.1404 42.6061 24.2055 44.1819 25.7725C45.4218 25.1606 46.8067 24.9033 48.1837 25.0291C49.5607 25.1549 50.876 25.6588 51.9845 26.4854C53.093 27.3119 53.9514 28.4287 54.4649 29.7125C54.9785 30.9963 55.1271 32.3971 54.8944 33.76C55.2365 33.7918 55.5684 33.8937 55.8693 34.0594C56.1703 34.2252 56.4338 34.4511 56.6435 34.7233C56.8533 34.9954 57.0046 35.3078 57.0882 35.641C57.1718 35.9743 57.1859 36.3212 57.1294 36.66C55.9994 43.4575 53.2044 47.76 48.7494 49.57V51.25C48.7494 52.2446 48.3543 53.1984 47.6511 53.9017C46.9478 54.605 45.994 55 44.9994 55H34.9994C34.0049 55 33.051 54.605 32.3478 53.9017C31.6445 53.1984 31.2494 52.2446 31.2494 51.25V49.57C26.7944 47.76 23.9994 43.4575 22.8694 36.66C22.8149 36.3302 22.8271 35.9927 22.9053 35.6676C22.9835 35.3425 23.1261 35.0364 23.3247 34.7674C23.5233 34.4984 23.7738 34.272 24.0615 34.1015C24.3492 33.9311 24.6681 33.8201 24.9994 33.775V33.7725ZM27.4994 33.75H29.9994C29.9994 32.0924 30.6579 30.5027 31.83 29.3306C33.0021 28.1585 34.5918 27.5 36.2494 27.5C37.907 27.5 39.4967 28.1585 40.6688 29.3306C41.8409 30.5027 42.4994 32.0924 42.4994 33.75H44.9994C44.9994 31.4294 44.0775 29.2038 42.4366 27.5629C40.7957 25.9219 38.5701 25 36.2494 25C33.9288 25 31.7032 25.9219 30.0622 27.5629C28.4213 29.2038 27.4994 31.4294 27.4994 33.75ZM32.4994 33.75H39.9994C39.9994 32.7555 39.6043 31.8017 38.9011 31.0984C38.1978 30.3951 37.244 30 36.2494 30C35.2549 30 34.301 30.3951 33.5978 31.0984C32.8945 31.8017 32.4994 32.7555 32.4994 33.75ZM49.6644 33.75H52.3419C52.5307 33.0112 52.5482 32.2391 52.3934 31.4924C52.2385 30.7458 51.9152 30.0443 51.4482 29.4415C50.9811 28.8388 50.3826 28.3505 49.6983 28.0141C49.014 27.6776 48.262 27.5018 47.4994 27.5C46.8994 27.5 46.3294 27.605 45.7994 27.7975C46.2419 28.5075 46.6069 29.2725 46.8869 30.075C47.3631 29.9569 47.8634 29.9813 48.3259 30.145C48.7884 30.3087 49.1926 30.6046 49.4884 30.996C49.7842 31.3874 49.9586 31.857 49.9898 32.3466C50.0211 32.8362 49.908 33.3242 49.6644 33.75ZM46.2494 50H33.7494V51.25C33.7494 51.5816 33.8811 51.8995 34.1155 52.1339C34.35 52.3683 34.6679 52.5 34.9994 52.5H44.9994C45.3309 52.5 45.6489 52.3683 45.8833 52.1339C46.1177 51.8995 46.2494 51.5816 46.2494 51.25V50ZM32.8694 47.5H47.1294C51.0944 46.225 53.6044 42.62 54.6644 36.25H25.3344C26.3944 42.62 28.9044 46.225 32.8694 47.5Z" fill="black"/>
</svg>
