<svg width="20" height="21" viewBox="0 0 20 21" fill="none" xmlns="http://www.w3.org/2000/svg">
<path d="M10.0007 2.16659C5.39828 2.16659 1.66732 5.89755 1.66732 10.4999C1.66732 15.1023 5.39828 18.8333 10.0007 18.8333C14.603 18.8333 18.334 15.1023 18.334 10.4999C18.334 5.89755 14.603 2.16659 10.0007 2.16659Z" fill="#DF0000"/>
<path d="M10 9.04159C9.65833 9.04159 9.375 9.32492 9.375 9.66659L9.375 13.8333C9.375 14.1749 9.65833 14.4583 10 14.4583C10.3417 14.4583 10.625 14.1749 10.625 13.8333L10.625 9.66659C10.625 9.32492 10.3417 9.04159 10 9.04159Z" fill="white"/>
<path d="M9.23398 7.48335C9.27565 7.58335 9.33398 7.67502 9.40898 7.75835C9.49232 7.83335 9.58398 7.89168 9.68398 7.93335C9.88398 8.01668 10.1173 8.01668 10.3173 7.93335C10.4173 7.89168 10.509 7.83335 10.5923 7.75835C10.6673 7.67502 10.7257 7.58335 10.7673 7.48335C10.809 7.38335 10.834 7.27502 10.834 7.16668C10.834 7.05835 10.809 6.95002 10.7673 6.85002C10.7257 6.74168 10.6673 6.65835 10.5923 6.57502C10.509 6.50002 10.4173 6.44168 10.3173 6.40002C10.2173 6.35835 10.109 6.33335 10.0007 6.33335C9.89232 6.33335 9.78398 6.35835 9.68398 6.40002C9.58398 6.44168 9.49232 6.50002 9.40898 6.57502C9.33398 6.65835 9.27565 6.74168 9.23398 6.85002C9.19232 6.95002 9.16732 7.05835 9.16732 7.16668C9.16732 7.27502 9.19232 7.38335 9.23398 7.48335Z" fill="white"/>
</svg>
