<svg width="20" height="20" viewBox="0 0 20 20" fill="none" xmlns="http://www.w3.org/2000/svg">
<path d="M6.24349 0.833374H13.9435C16.8768 0.833374 19.2602 3.21671 19.2602 6.15004V13.85C19.2602 15.2601 18.7 16.6124 17.7029 17.6095C16.7059 18.6066 15.3536 19.1667 13.9435 19.1667H6.24349C3.31015 19.1667 0.926819 16.7834 0.926819 13.85V6.15004C0.926819 4.73997 1.48697 3.38766 2.48403 2.39059C3.4811 1.39352 4.83342 0.833374 6.24349 0.833374ZM6.06015 2.66671C5.18494 2.66671 4.34557 3.01438 3.7267 3.63326C3.10783 4.25213 2.76015 5.09149 2.76015 5.96671V14.0334C2.76015 15.8575 4.23599 17.3334 6.06015 17.3334H14.1268C15.002 17.3334 15.8414 16.9857 16.4603 16.3668C17.0791 15.748 17.4268 14.9086 17.4268 14.0334V5.96671C17.4268 4.14254 15.951 2.66671 14.1268 2.66671H6.06015ZM14.906 4.04171C15.2099 4.04171 15.5013 4.16243 15.7162 4.37731C15.9311 4.5922 16.0518 4.88365 16.0518 5.18754C16.0518 5.49143 15.9311 5.78288 15.7162 5.99777C15.5013 6.21265 15.2099 6.33337 14.906 6.33337C14.6021 6.33337 14.3106 6.21265 14.0958 5.99777C13.8809 5.78288 13.7602 5.49143 13.7602 5.18754C13.7602 4.88365 13.8809 4.5922 14.0958 4.37731C14.3106 4.16243 14.6021 4.04171 14.906 4.04171ZM10.0935 5.41671C11.3091 5.41671 12.4748 5.89959 13.3344 6.75913C14.1939 7.61868 14.6768 8.78446 14.6768 10C14.6768 11.2156 14.1939 12.3814 13.3344 13.2409C12.4748 14.1005 11.3091 14.5834 10.0935 14.5834C8.87791 14.5834 7.71212 14.1005 6.85258 13.2409C5.99304 12.3814 5.51015 11.2156 5.51015 10C5.51015 8.78446 5.99304 7.61868 6.85258 6.75913C7.71212 5.89959 8.87791 5.41671 10.0935 5.41671ZM10.0935 7.25004C9.36414 7.25004 8.66467 7.53977 8.14894 8.0555C7.63322 8.57122 7.34349 9.27069 7.34349 10C7.34349 10.7294 7.63322 11.4289 8.14894 11.9446C8.66467 12.4603 9.36414 12.75 10.0935 12.75C10.8228 12.75 11.5223 12.4603 12.038 11.9446C12.5538 11.4289 12.8435 10.7294 12.8435 10C12.8435 9.27069 12.5538 8.57122 12.038 8.0555C11.5223 7.53977 10.8228 7.25004 10.0935 7.25004Z" fill="white"/>
</svg>
